# xmcd
#
# Track frame offsets:
#	150
#	22629
#	39786
#	68178
#	89619
#	113626
#	133246
#	154264
#	181517
#	202700
#	222830
#	246050
#	266703
#	294759
#	313990
#	336112
#
# Disc length: 4853 seconds
#
# Revision: 0
# Processed by: cddbd v1.5.2PL0 Copyright (c) Steve Scherf et al.
# Submitted via: FairStars CD Ripper 1.30
#
DISCID=d612f310
DTITLE=16 Horsepower - Live at Kulturbolaget, Malmö, Sweden (17 mai 2000)
DYEAR=2000
DGENRE=Country
TTITLE0=Silver Saddle
TTITLE1=Praying Arm Lane
TTITLE2=Splinters
TTITLE3=Wayfaring Stranger
TTITLE4=Harm's Way
TTITLE5=American Wheeze
TTITLE6=Burning Bush
TTITLE7=Poor Mouth
TTITLE8=Straw Foot
TTITLE9=Clogger
TTITLE10=Strong Man
TTITLE11=Flowers in my Heart
TTITLE12=Cinder Alley
TTITLE13=Low Estate
TTITLE14=Black Soul Choir
TTITLE15=For Heaven's Sake
EXTD=
EXTT0=
EXTT1=
EXTT2=
EXTT3=
EXTT4=
EXTT5=
EXTT6=
EXTT7=
EXTT8=
EXTT9=
EXTT10=
EXTT11=
EXTT12=
EXTT13=
EXTT14=
EXTT15=
PLAYORDER=
